<svg width="56" height="57" viewBox="0 0 56 57" fill="none" xmlns="http://www.w3.org/2000/svg">
<path d="M19.4941 8.28318C19.4941 8.98396 19.0377 9.55204 18.4748 9.55204C17.9118 9.55204 17.4554 8.98396 17.4554 8.28318C17.4554 7.58241 17.9118 7.01432 18.4748 7.01432C19.0377 7.01432 19.4941 7.58241 19.4941 8.28318Z" fill="black"/>
<path d="M18.0925 14.12L18.4748 15.135L18.9844 15.0082L17.7102 16.4039L16.8182 16.1501L16.5634 14.6275L18.0925 14.12Z" fill="#F0CB92"/>
<path d="M3.71528 21.8945L3.09126 22.3413C2.87671 22.495 2.6197 22.5783 2.35582 22.5797L1.83881 22.5826C1.76481 22.583 1.70052 22.532 1.68416 22.46C1.66488 22.3751 1.7182 22.2907 1.80324 22.2713L2.48174 22.1169C2.42304 22.0203 2.32215 21.9569 2.20942 21.9459L1.49312 21.8759L0.489165 22.3306C0.37326 22.3831 0.270678 22.4886 0.143351 22.4893C-0.176381 22.4911 0.0999747 22.0585 0.376549 21.8987L1.21339 21.4154C1.77636 21.2915 2.34898 21.2168 2.9248 21.1921L2.97159 21.1901C8.01245 19.4629 6.35593 21.4154 3.71528 21.8945Z" fill="#F0CB92"/>
<path d="M29.5249 0.983771C29.5461 0.965024 29.5746 0.958846 29.5985 0.967804C29.6335 0.980883 29.648 1.02163 29.6309 1.05881L29.5623 1.20849L29.3885 1.52144L29.1703 2.04113C29.3955 1.6421 29.6494 1.14224 29.8985 0.773064L30.0509 0.599063C30.0893 0.555156 30.1485 0.537999 30.1979 0.556455C30.264 0.581214 30.2892 0.660232 30.2529 0.728933L29.4216 2.29992L29.7449 1.68883L30.4494 0.568013C30.4641 0.544592 30.4854 0.525778 30.5101 0.514379L30.5168 0.51129C30.5762 0.483891 30.6408 0.508067 30.6613 0.565356C30.6712 0.592994 30.6693 0.624793 30.6561 0.653732L29.831 2.4531L30.229 1.58507L30.6431 0.939109C30.6785 0.892579 30.738 0.872927 30.7875 0.891434C30.8518 0.915493 30.8746 0.993678 30.8363 1.05899L30.4863 1.80845L30.1547 2.53165C30.1437 2.55578 30.1354 2.58086 30.1302 2.60634L30.0684 2.90818C30.0636 2.9317 30.0756 2.96615 30.0957 2.99035C30.1359 3.03878 30.1843 2.96989 30.1912 2.90743L30.237 2.49353C30.2481 2.39271 30.3061 2.26928 30.4015 2.30496C30.5332 2.35422 30.4885 2.56094 30.5286 2.69517L30.5443 2.74744C30.6025 2.94197 30.576 3.1519 30.4714 3.3261L30.1274 3.89875L29.6462 4.16363L28.1568 6.81615L27.0757 6.3556L28.4677 3.59559L28.4898 3.28603L28.6582 2.39566L29.3266 1.18788C29.3471 1.1509 29.3739 1.11744 29.4057 1.0893L29.5249 0.983771Z" fill="#F0CB92"/>
<path d="M17.9236 16.3752L17.9236 18.4547L4.67773 22.1364L4.11965 20.6913L9.72622 18.786L10.1021 18.5725C12.1856 17.3893 14.4571 16.57 16.8182 16.1501L17.9236 16.3752Z" fill="#93435E"/>
<path d="M25.9978 50.1557L27.8531 50.4095C28.0736 50.2687 28.3667 50.3303 28.5113 50.5478L29.1462 51.5031C29.166 51.5329 29.168 51.5711 29.1515 51.6028L29.0172 51.8599C28.4236 52.9968 28.0585 54.2381 27.9426 55.5143L27.8648 56.3708C27.8582 56.4439 27.7966 56.5 27.7228 56.5H26.9948C26.5062 56.5 26.0992 56.127 26.0587 55.6421L25.8653 53.3278L25.9978 50.1557Z" fill="#BD114B"/>
<path d="M50.5338 18.8312L50.041 17.1784C49.8315 17.0569 49.7679 16.7849 49.902 16.5838L50.5362 15.6325C50.5531 15.6071 50.5818 15.592 50.6124 15.5924L50.9036 15.5956C52.1737 15.6097 53.4356 15.3928 54.6274 14.9555L55.4529 14.6526C55.5272 14.6254 55.6099 14.6593 55.6434 14.7307L55.9192 15.3196C56.1094 15.7259 55.9534 16.2095 55.5612 16.4295L53.4726 17.601L50.5338 18.8312Z" fill="#BD114B"/>
<path d="M24.5372 36.8572C23.1882 33.0978 24.3074 28.8993 27.3512 26.301L29.5541 30.3614L29.9429 33.1529L28.4205 38.5195C28.1477 39.4811 28.211 40.5064 28.6001 41.4274C28.9752 42.3155 29.0479 43.3014 28.807 44.2345L27.9991 47.3642L27.5637 51.0681C27.5372 51.2932 27.6157 51.518 27.7767 51.6783L27.6795 52.716C27.6403 53.1346 27.2875 53.4547 26.8653 53.4547C26.4711 53.4547 26.1329 53.1746 26.0612 52.7885L25.9515 52.1975C25.9344 52.1053 25.9258 52.0118 25.9258 51.9181V50.7901L25.712 41.895C25.6819 40.6429 25.4509 39.4037 25.0277 38.2243L24.5372 36.8572Z" fill="#E7B1C8"/>
<path d="M34.8643 19.7171C33.122 19.203 31.0096 18.5836 29.7442 19.8823C28.3853 21.277 28.2536 24.004 27.2813 26.5582L31.7339 27.2011L34.4228 26.6247L38.5084 23.7021C39.5329 22.9692 40.7097 22.4752 41.9518 22.2566C42.5904 22.1442 43.2138 21.9586 43.8096 21.7036L50.8505 18.6897C50.953 18.6458 51.0511 18.5923 51.1434 18.5299L51.722 18.1385C52.0458 17.9194 52.1789 17.5093 52.045 17.143C51.9039 16.7569 51.506 16.5262 51.0992 16.5946L50.5757 16.6826C50.4827 16.6982 50.388 16.7005 50.2944 16.6893C50.0321 16.6581 49.7681 16.7329 49.5617 16.8972L49.4898 16.9544C49.3463 17.0686 49.1785 17.1486 48.9993 17.1884L42.8305 18.5575C42.0927 18.7213 41.394 19.0263 40.7732 19.4556C40.566 19.5989 40.3506 19.7281 40.1283 19.8427C38.5146 20.6747 36.6066 20.2313 34.8643 19.7171Z" fill="#E7B1C8"/>
<path d="M31.914 17.3164C35.6108 20.3424 36.1442 25.7796 33.1055 29.4608L31.3263 31.6162C28.2875 35.2974 22.8272 35.8286 19.1304 32.8027L22.9943 27.9506L22.2298 26.4279L19.9938 24.5971C19.4253 24.1316 18.7605 23.7968 18.0469 23.6168L17.4061 23.4551C16.5762 23.2456 15.8587 22.7271 15.4015 22.0063L15.3471 21.9205C14.8629 21.157 14.7363 20.2214 15.0003 19.3574C15.5732 17.4831 17.7039 16.5054 18.9661 15.0024L19.4941 14.3737L23.2193 10.3134L27.2217 5.74545L28.4423 6.50677L25.483 10.9478L21.8476 15.7695L23.1391 19.6276C23.2936 20.0893 23.5889 20.4914 23.9838 20.7781C25.0092 21.5224 26.4429 21.321 27.2217 20.3234L27.5296 19.9289C27.7765 19.6126 28.0874 19.3516 28.4423 19.1629L31.914 17.3164Z" fill="#BD114B"/>
<path d="M18.9636 12.0294C18.9636 13.3984 19.21 13.8715 15.7945 15.1671C15.6592 15.2185 15.5097 15.1468 15.4752 15.0067C15.4096 14.7411 15.328 14.4353 15.0725 14.2468C14.9069 14.2468 14.8506 13.821 14.9949 13.821C14.9738 13.7747 15.0218 13.6834 15.0295 13.6214C15.0437 13.5072 14.8257 13.4744 14.7637 13.3774C14.6982 13.275 14.7126 13.16 14.7887 13.0653C15.2524 12.4875 15.0649 12.5668 15.4166 12.2167C14.7795 10.9478 15.4241 9.80582 16.6908 9.80582C17.9575 9.80582 18.9636 10.6279 18.9636 12.0294Z" fill="#F0CB92"/>
<path d="M15.9263 13.7393L15.7455 13.9193C15.612 14.0522 15.458 14.1628 15.2892 14.2468L15.1778 14.3578C15.1686 14.3669 15.154 14.368 15.1437 14.3602L15.0108 14.261C14.8357 14.1302 14.843 13.8663 15.0251 13.7454C15.0308 13.7416 15.0381 13.7412 15.0442 13.7442L15.1945 13.819C15.2559 13.8496 15.3257 13.8589 15.393 13.8455L15.9263 13.7393Z" fill="#B84E4E"/>
<path d="M16.5634 12.0898C16.5634 12.2299 16.2648 12.3435 16.0537 12.3435C15.8426 12.3435 15.7989 12.2167 15.6714 12.2167C15.6714 12.0765 15.9263 11.7091 16.0537 11.7091C16.2648 11.7091 16.5634 11.9496 16.5634 12.0898Z" fill="#D9D9D9"/>
<path d="M16.5634 12.0898C16.5634 12.2299 16.2648 11.9629 16.0537 11.9629C15.8426 11.9629 15.7989 12.0898 15.6714 12.2167C15.6714 12.0765 15.9263 11.7091 16.0537 11.7091C16.2648 11.7091 16.5634 11.9496 16.5634 12.0898Z" fill="white" fill-opacity="0.35"/>
<path d="M16.1811 12.2167C16.1811 12.2867 16.1241 12.3435 16.0537 12.3435C15.9833 12.3435 15.9263 12.2867 15.9263 12.2167C15.9263 12.1466 15.9833 12.0898 16.0537 12.0898C16.1241 12.0898 16.1811 12.1466 16.1811 12.2167Z" fill="black"/>
<path fill-rule="evenodd" clip-rule="evenodd" d="M16.7418 11.9629C16.7418 12.0035 16.7314 12.0373 16.7133 12.0644C16.6954 12.0912 16.6719 12.1084 16.6499 12.1193C16.6281 12.1301 16.607 12.1353 16.5917 12.1379C16.5839 12.1391 16.5773 12.1398 16.5725 12.1401C16.5701 12.1403 16.5665 12.1405 16.5665 12.1405L16.5646 12.1405C16.5646 12.1405 16.5634 12.1405 16.5634 12.0949L16.5646 12.1405C16.491 12.1405 16.4246 12.1191 16.3665 12.0959C16.3478 12.0884 16.3304 12.081 16.3136 12.0739C16.2755 12.0578 16.241 12.0431 16.2038 12.0327C16.1533 12.0185 16.1041 12.0144 16.0498 12.0304C15.9946 12.0466 15.6714 12.2167 15.6727 12.2145L15.6714 12.2167C15.7406 12.0947 15.887 11.9725 16.0208 11.9331C16.0984 11.9102 16.168 11.9171 16.2315 11.935C16.2753 11.9473 16.3194 11.9659 16.3599 11.9831C16.3753 11.9897 16.3903 11.996 16.4045 12.0017C16.4588 12.0234 16.5093 12.0389 16.563 12.039L16.5652 12.0389C16.5674 12.0387 16.5707 12.0384 16.5749 12.0377C16.5835 12.0363 16.5942 12.0335 16.6043 12.0285C16.6142 12.0236 16.6225 12.017 16.6285 12.0081C16.6446 11.984 16.7418 11.9629 16.7418 11.9629Z" fill="black"/>
<path d="M15.4166 10.4403C15.4983 10.1149 15.7046 9.83429 15.9915 9.65851L16.8087 9.15773C17.0673 8.99926 17.3551 8.89393 17.6553 8.84795L17.7413 8.83477C18.4385 8.72796 19.1432 8.97469 19.6198 9.49247L19.6455 9.52036C20.0356 9.94418 20.2258 10.5135 20.1684 11.0856C20.0701 12.0646 19.6177 13.0141 18.8204 13.5907C18.7342 13.6531 18.6561 13.7023 18.593 13.7324L18.6472 13.6071C18.7716 13.3194 18.8281 13.0068 18.8122 12.6937L18.7937 12.3299C18.7808 12.0751 18.6766 11.8336 18.5002 11.6493C17.9133 12.0482 17.1505 11.9339 16.7214 11.3687C16.3943 10.9381 16.0516 10.5862 15.4166 10.4403Z" fill="black"/>
</svg>
